<svg xmlns="http://www.w3.org/2000/svg" version="1.1" xmlns:xlink="http://www.w3.org/1999/xlink" xmlns:svgjs="http://svgjs.dev/svgjs" width="1440" height="560" preserveAspectRatio="none" viewBox="0 0 1440 560"><g mask="url(&quot;#SvgjsMask1034&quot;)" fill="none"><rect width="1440" height="560" x="0" y="0" fill="rgba(72, 1, 114, 1)"></rect><path d="M-37.9 371.91L-37.9 371.91" stroke="rgba(82, 121, 201, 1)" stroke-width="1.5"></path><path d="M-37.9 371.91L101.87 358.57" stroke="rgba(82, 121, 201, 1)" stroke-width="1.5"></path><path d="M-37.9 371.91L-46.65 536.66" stroke="rgba(82, 121, 201, 1)" stroke-width="1.5"></path><path d="M-37.9 371.91L63.52 546.87" stroke="rgba(82, 121, 201, 1)" stroke-width="1.5"></path><path d="M-37.9 371.91L205.72 357.68" stroke="rgba(82, 121, 201, 1)" stroke-width="1.5"></path><path d="M-37.9 371.91L-49.17 665.35" stroke="rgba(82, 121, 201, 1)" stroke-width="1.5"></path><path d="M-37.9 371.91L260.57 489.83" stroke="rgba(82, 121, 201, 1)" stroke-width="1.5"></path><path d="M-46.65 536.66L-46.65 536.66" stroke="rgba(82, 121, 201, 1)" stroke-width="1.5"></path><path d="M-46.65 536.66L63.52 546.87" stroke="rgba(82, 121, 201, 1)" stroke-width="1.5"></path><path d="M-46.65 536.66L-49.17 665.35" stroke="rgba(82, 121, 201, 1)" stroke-width="1.5"></path><path d="M-46.65 536.66L68.3 703.89" stroke="rgba(82, 121, 201, 1)" stroke-width="1.5"></path><path d="M-46.65 536.66L101.87 358.57" stroke="rgba(82, 121, 201, 1)" stroke-width="1.5"></path><path d="M-46.65 536.66L205.72 357.68" stroke="rgba(82, 121, 201, 1)" stroke-width="1.5"></path><path d="M-49.17 665.35L-49.17 665.35" stroke="rgba(82, 121, 201, 1)" stroke-width="1.5"></path><path d="M-49.17 665.35L68.3 703.89" stroke="rgba(82, 121, 201, 1)" stroke-width="1.5"></path><path d="M-49.17 665.35L63.52 546.87" stroke="rgba(82, 121, 201, 1)" stroke-width="1.5"></path><path d="M-49.17 665.35L230.66 674.55" stroke="rgba(82, 121, 201, 1)" stroke-width="1.5"></path><path d="M-49.17 665.35L101.87 358.57" stroke="rgba(82, 121, 201, 1)" stroke-width="1.5"></path><path d="M101.87 358.57L101.87 358.57" stroke="rgba(82, 121, 201, 1)" stroke-width="1.5"></path><path d="M101.87 358.57L205.72 357.68" stroke="rgba(82, 121, 201, 1)" stroke-width="1.5"></path><path d="M101.87 358.57L63.52 546.87" stroke="rgba(82, 121, 201, 1)" stroke-width="1.5"></path><path d="M101.87 358.57L260.57 489.83" stroke="rgba(82, 121, 201, 1)" stroke-width="1.5"></path><path d="M101.87 358.57L407.56 400.04" stroke="rgba(82, 121, 201, 1)" stroke-width="1.5"></path><path d="M63.52 546.87L63.52 546.87" stroke="rgba(82, 121, 201, 1)" stroke-width="1.5"></path><path d="M63.52 546.87L68.3 703.89" stroke="rgba(82, 121, 201, 1)" stroke-width="1.5"></path><path d="M63.52 546.87L260.57 489.83" stroke="rgba(82, 121, 201, 1)" stroke-width="1.5"></path><path d="M68.3 703.89L68.3 703.89" stroke="rgba(82, 121, 201, 1)" stroke-width="1.5"></path><path d="M68.3 703.89L230.66 674.55" stroke="rgba(82, 121, 201, 1)" stroke-width="1.5"></path><path d="M68.3 703.89L260.57 489.83" stroke="rgba(82, 121, 201, 1)" stroke-width="1.5"></path><path d="M205.72 357.68L205.72 357.68" stroke="rgba(82, 121, 201, 1)" stroke-width="1.5"></path><path d="M205.72 357.68L260.57 489.83" stroke="rgba(82, 121, 201, 1)" stroke-width="1.5"></path><path d="M205.72 357.68L407.56 400.04" stroke="rgba(82, 121, 201, 1)" stroke-width="1.5"></path><path d="M205.72 357.68L63.52 546.87" stroke="rgba(82, 121, 201, 1)" stroke-width="1.5"></path><path d="M260.57 489.83L260.57 489.83" stroke="rgba(82, 121, 201, 1)" stroke-width="1.5"></path><path d="M260.57 489.83L377.39 546.34" stroke="rgba(82, 121, 201, 1)" stroke-width="1.5"></path><path d="M260.57 489.83L407.56 400.04" stroke="rgba(82, 121, 201, 1)" stroke-width="1.5"></path><path d="M260.57 489.83L230.66 674.55" stroke="rgba(82, 121, 201, 1)" stroke-width="1.5"></path><path d="M230.66 674.55L230.66 674.55" stroke="rgba(82, 121, 201, 1)" stroke-width="1.5"></path><path d="M230.66 674.55L364.17 674.44" stroke="rgba(82, 121, 201, 1)" stroke-width="1.5"></path><path d="M407.56 400.04L407.56 400.04" stroke="rgba(82, 121, 201, 1)" stroke-width="1.5"></path><path d="M407.56 400.04L490.09 358.02" stroke="rgba(82, 121, 201, 1)" stroke-width="1.5"></path><path d="M377.39 546.34L377.39 546.34" stroke="rgba(82, 121, 201, 1)" stroke-width="1.5"></path><path d="M377.39 546.34L492.4 535.14" stroke="rgba(82, 121, 201, 1)" stroke-width="1.5"></path><path d="M377.39 546.34L364.17 674.44" stroke="rgba(82, 121, 201, 1)" stroke-width="1.5"></path><path d="M364.17 674.44L364.17 674.44" stroke="rgba(82, 121, 201, 1)" stroke-width="1.5"></path><path d="M364.17 674.44L509.1 659.61" stroke="rgba(82, 121, 201, 1)" stroke-width="1.5"></path><path d="M490.09 358.02L490.09 358.02" stroke="rgba(82, 121, 201, 1)" stroke-width="1.5"></path><path d="M490.09 358.02L492.4 535.14" stroke="rgba(82, 121, 201, 1)" stroke-width="1.5"></path><path d="M492.4 535.14L492.4 535.14" stroke="rgba(82, 121, 201, 1)" stroke-width="1.5"></path><path d="M492.4 535.14L509.1 659.61" stroke="rgba(82, 121, 201, 1)" stroke-width="1.5"></path><path d="M492.4 535.14L407.56 400.04" stroke="rgba(82, 121, 201, 1)" stroke-width="1.5"></path><path d="M492.4 535.14L364.17 674.44" stroke="rgba(82, 121, 201, 1)" stroke-width="1.5"></path><path d="M509.1 659.61L509.1 659.61" stroke="rgba(82, 121, 201, 1)" stroke-width="1.5"></path><path d="M509.1 659.61L676.96 698.03" stroke="rgba(82, 121, 201, 1)" stroke-width="1.5"></path><path d="M509.1 659.61L377.39 546.34" stroke="rgba(82, 121, 201, 1)" stroke-width="1.5"></path><path d="M509.1 659.61L706.06 519.76" stroke="rgba(82, 121, 201, 1)" stroke-width="1.5"></path><path d="M709.57 255.28L709.57 255.28" stroke="rgba(82, 121, 201, 1)" stroke-width="1.5"></path><path d="M709.57 255.28L790.17 233.15" stroke="rgba(82, 121, 201, 1)" stroke-width="1.5"></path><path d="M709.57 255.28L692.38 365.53" stroke="rgba(82, 121, 201, 1)" stroke-width="1.5"></path><path d="M692.38 365.53L692.38 365.53" stroke="rgba(82, 121, 201, 1)" stroke-width="1.5"></path><path d="M692.38 365.53L809.39 391.29" stroke="rgba(82, 121, 201, 1)" stroke-width="1.5"></path><path d="M692.38 365.53L706.06 519.76" stroke="rgba(82, 121, 201, 1)" stroke-width="1.5"></path><path d="M692.38 365.53L790.17 233.15" stroke="rgba(82, 121, 201, 1)" stroke-width="1.5"></path><path d="M692.38 365.53L805.46 509.42" stroke="rgba(82, 121, 201, 1)" stroke-width="1.5"></path><path d="M692.38 365.53L490.09 358.02" stroke="rgba(82, 121, 201, 1)" stroke-width="1.5"></path><path d="M706.06 519.76L706.06 519.76" stroke="rgba(82, 121, 201, 1)" stroke-width="1.5"></path><path d="M706.06 519.76L805.46 509.42" stroke="rgba(82, 121, 201, 1)" stroke-width="1.5"></path><path d="M706.06 519.76L809.39 391.29" stroke="rgba(82, 121, 201, 1)" stroke-width="1.5"></path><path d="M706.06 519.76L676.96 698.03" stroke="rgba(82, 121, 201, 1)" stroke-width="1.5"></path><path d="M676.96 698.03L676.96 698.03" stroke="rgba(82, 121, 201, 1)" stroke-width="1.5"></path><path d="M676.96 698.03L858.58 687.05" stroke="rgba(82, 121, 201, 1)" stroke-width="1.5"></path><path d="M676.96 698.03L805.46 509.42" stroke="rgba(82, 121, 201, 1)" stroke-width="1.5"></path><path d="M849.84 97.92L849.84 97.92" stroke="rgba(82, 121, 201, 1)" stroke-width="1.5"></path><path d="M849.84 97.92L973.32 78.74" stroke="rgba(82, 121, 201, 1)" stroke-width="1.5"></path><path d="M849.84 97.92L790.17 233.15" stroke="rgba(82, 121, 201, 1)" stroke-width="1.5"></path><path d="M849.84 97.92L969.1 240.45" stroke="rgba(82, 121, 201, 1)" stroke-width="1.5"></path><path d="M790.17 233.15L790.17 233.15" stroke="rgba(82, 121, 201, 1)" stroke-width="1.5"></path><path d="M809.39 391.29L809.39 391.29" stroke="rgba(82, 121, 201, 1)" stroke-width="1.5"></path><path d="M809.39 391.29L805.46 509.42" stroke="rgba(82, 121, 201, 1)" stroke-width="1.5"></path><path d="M809.39 391.29L790.17 233.15" stroke="rgba(82, 121, 201, 1)" stroke-width="1.5"></path><path d="M809.39 391.29L709.57 255.28" stroke="rgba(82, 121, 201, 1)" stroke-width="1.5"></path><path d="M805.46 509.42L805.46 509.42" stroke="rgba(82, 121, 201, 1)" stroke-width="1.5"></path><path d="M805.46 509.42L858.58 687.05" stroke="rgba(82, 121, 201, 1)" stroke-width="1.5"></path><path d="M858.58 687.05L858.58 687.05" stroke="rgba(82, 121, 201, 1)" stroke-width="1.5"></path><path d="M858.58 687.05L969.21 688.7" stroke="rgba(82, 121, 201, 1)" stroke-width="1.5"></path><path d="M1009 -65.61L1009 -65.61" stroke="rgba(82, 121, 201, 1)" stroke-width="1.5"></path><path d="M1009 -65.61L973.32 78.74" stroke="rgba(82, 121, 201, 1)" stroke-width="1.5"></path><path d="M1009 -65.61L1149.12 59.35" stroke="rgba(82, 121, 201, 1)" stroke-width="1.5"></path><path d="M1009 -65.61L849.84 97.92" stroke="rgba(82, 121, 201, 1)" stroke-width="1.5"></path><path d="M973.32 78.74L973.32 78.74" stroke="rgba(82, 121, 201, 1)" stroke-width="1.5"></path><path d="M973.32 78.74L969.1 240.45" stroke="rgba(82, 121, 201, 1)" stroke-width="1.5"></path><path d="M969.1 240.45L969.1 240.45" stroke="rgba(82, 121, 201, 1)" stroke-width="1.5"></path><path d="M969.1 240.45L1112.44 257.96" stroke="rgba(82, 121, 201, 1)" stroke-width="1.5"></path><path d="M969.1 240.45L997.21 406.75" stroke="rgba(82, 121, 201, 1)" stroke-width="1.5"></path><path d="M969.1 240.45L790.17 233.15" stroke="rgba(82, 121, 201, 1)" stroke-width="1.5"></path><path d="M969.1 240.45L1120.58 367.87" stroke="rgba(82, 121, 201, 1)" stroke-width="1.5"></path><path d="M997.21 406.75L997.21 406.75" stroke="rgba(82, 121, 201, 1)" stroke-width="1.5"></path><path d="M997.21 406.75L1120.58 367.87" stroke="rgba(82, 121, 201, 1)" stroke-width="1.5"></path><path d="M997.21 406.75L1008.16 557.44" stroke="rgba(82, 121, 201, 1)" stroke-width="1.5"></path><path d="M997.21 406.75L1112.44 257.96" stroke="rgba(82, 121, 201, 1)" stroke-width="1.5"></path><path d="M997.21 406.75L809.39 391.29" stroke="rgba(82, 121, 201, 1)" stroke-width="1.5"></path><path d="M997.21 406.75L1161.22 503.48" stroke="rgba(82, 121, 201, 1)" stroke-width="1.5"></path><path d="M1008.16 557.44L1008.16 557.44" stroke="rgba(82, 121, 201, 1)" stroke-width="1.5"></path><path d="M1008.16 557.44L969.21 688.7" stroke="rgba(82, 121, 201, 1)" stroke-width="1.5"></path><path d="M1008.16 557.44L1161.22 503.48" stroke="rgba(82, 121, 201, 1)" stroke-width="1.5"></path><path d="M969.21 688.7L969.21 688.7" stroke="rgba(82, 121, 201, 1)" stroke-width="1.5"></path><path d="M969.21 688.7L1155.07 668.41" stroke="rgba(82, 121, 201, 1)" stroke-width="1.5"></path><path d="M969.21 688.7L805.46 509.42" stroke="rgba(82, 121, 201, 1)" stroke-width="1.5"></path><path d="M1149.12 59.35L1149.12 59.35" stroke="rgba(82, 121, 201, 1)" stroke-width="1.5"></path><path d="M1149.12 59.35L1307.31 93.83" stroke="rgba(82, 121, 201, 1)" stroke-width="1.5"></path><path d="M1149.12 59.35L973.32 78.74" stroke="rgba(82, 121, 201, 1)" stroke-width="1.5"></path><path d="M1149.12 59.35L1288.11 -66.54" stroke="rgba(82, 121, 201, 1)" stroke-width="1.5"></path><path d="M1112.44 257.96L1112.44 257.96" stroke="rgba(82, 121, 201, 1)" stroke-width="1.5"></path><path d="M1112.44 257.96L1120.58 367.87" stroke="rgba(82, 121, 201, 1)" stroke-width="1.5"></path><path d="M1112.44 257.96L1279.38 213.39" stroke="rgba(82, 121, 201, 1)" stroke-width="1.5"></path><path d="M1120.58 367.87L1120.58 367.87" stroke="rgba(82, 121, 201, 1)" stroke-width="1.5"></path><path d="M1120.58 367.87L1161.22 503.48" stroke="rgba(82, 121, 201, 1)" stroke-width="1.5"></path><path d="M1120.58 367.87L1303.67 387.56" stroke="rgba(82, 121, 201, 1)" stroke-width="1.5"></path><path d="M1161.22 503.48L1161.22 503.48" stroke="rgba(82, 121, 201, 1)" stroke-width="1.5"></path><path d="M1161.22 503.48L1270.04 543.16" stroke="rgba(82, 121, 201, 1)" stroke-width="1.5"></path><path d="M1161.22 503.48L1155.07 668.41" stroke="rgba(82, 121, 201, 1)" stroke-width="1.5"></path><path d="M1161.22 503.48L1303.67 387.56" stroke="rgba(82, 121, 201, 1)" stroke-width="1.5"></path><path d="M1155.07 668.41L1155.07 668.41" stroke="rgba(82, 121, 201, 1)" stroke-width="1.5"></path><path d="M1155.07 668.41L1308.99 692.3" stroke="rgba(82, 121, 201, 1)" stroke-width="1.5"></path><path d="M1288.11 -66.54L1288.11 -66.54" stroke="rgba(82, 121, 201, 1)" stroke-width="1.5"></path><path d="M1288.11 -66.54L1307.31 93.83" stroke="rgba(82, 121, 201, 1)" stroke-width="1.5"></path><path d="M1288.11 -66.54L1449.89 -75.48" stroke="rgba(82, 121, 201, 1)" stroke-width="1.5"></path><path d="M1307.31 93.83L1307.31 93.83" stroke="rgba(82, 121, 201, 1)" stroke-width="1.5"></path><path d="M1307.31 93.83L1279.38 213.39" stroke="rgba(82, 121, 201, 1)" stroke-width="1.5"></path><path d="M1307.31 93.83L1389.79 221.6" stroke="rgba(82, 121, 201, 1)" stroke-width="1.5"></path><path d="M1307.31 93.83L1451.93 42.89" stroke="rgba(82, 121, 201, 1)" stroke-width="1.5"></path><path d="M1307.31 93.83L1449.89 -75.48" stroke="rgba(82, 121, 201, 1)" stroke-width="1.5"></path><path d="M1279.38 213.39L1279.38 213.39" stroke="rgba(82, 121, 201, 1)" stroke-width="1.5"></path><path d="M1279.38 213.39L1389.79 221.6" stroke="rgba(82, 121, 201, 1)" stroke-width="1.5"></path><path d="M1303.67 387.56L1303.67 387.56" stroke="rgba(82, 121, 201, 1)" stroke-width="1.5"></path><path d="M1303.67 387.56L1430.31 373.29" stroke="rgba(82, 121, 201, 1)" stroke-width="1.5"></path><path d="M1303.67 387.56L1398.56 503.91" stroke="rgba(82, 121, 201, 1)" stroke-width="1.5"></path><path d="M1303.67 387.56L1270.04 543.16" stroke="rgba(82, 121, 201, 1)" stroke-width="1.5"></path><path d="M1303.67 387.56L1279.38 213.39" stroke="rgba(82, 121, 201, 1)" stroke-width="1.5"></path><path d="M1270.04 543.16L1270.04 543.16" stroke="rgba(82, 121, 201, 1)" stroke-width="1.5"></path><path d="M1270.04 543.16L1398.56 503.91" stroke="rgba(82, 121, 201, 1)" stroke-width="1.5"></path><path d="M1270.04 543.16L1308.99 692.3" stroke="rgba(82, 121, 201, 1)" stroke-width="1.5"></path><path d="M1270.04 543.16L1155.07 668.41" stroke="rgba(82, 121, 201, 1)" stroke-width="1.5"></path><path d="M1270.04 543.16L1120.58 367.87" stroke="rgba(82, 121, 201, 1)" stroke-width="1.5"></path><path d="M1308.99 692.3L1308.99 692.3" stroke="rgba(82, 121, 201, 1)" stroke-width="1.5"></path><path d="M1449.89 -75.48L1449.89 -75.48" stroke="rgba(82, 121, 201, 1)" stroke-width="1.5"></path><path d="M1449.89 -75.48L1451.93 42.89" stroke="rgba(82, 121, 201, 1)" stroke-width="1.5"></path><path d="M1449.89 -75.48L1602.46 -103.09" stroke="rgba(82, 121, 201, 1)" stroke-width="1.5"></path><path d="M1449.89 -75.48L1554.34 203.25" stroke="rgba(82, 121, 201, 1)" stroke-width="1.5"></path><path d="M1449.89 -75.48L1389.79 221.6" stroke="rgba(82, 121, 201, 1)" stroke-width="1.5"></path><path d="M1451.93 42.89L1451.93 42.89" stroke="rgba(82, 121, 201, 1)" stroke-width="1.5"></path><path d="M1451.93 42.89L1389.79 221.6" stroke="rgba(82, 121, 201, 1)" stroke-width="1.5"></path><path d="M1451.93 42.89L1554.34 203.25" stroke="rgba(82, 121, 201, 1)" stroke-width="1.5"></path><path d="M1389.79 221.6L1389.79 221.6" stroke="rgba(82, 121, 201, 1)" stroke-width="1.5"></path><path d="M1430.31 373.29L1430.31 373.29" stroke="rgba(82, 121, 201, 1)" stroke-width="1.5"></path><path d="M1430.31 373.29L1550.72 342.52" stroke="rgba(82, 121, 201, 1)" stroke-width="1.5"></path><path d="M1430.31 373.29L1398.56 503.91" stroke="rgba(82, 121, 201, 1)" stroke-width="1.5"></path><path d="M1398.56 503.91L1398.56 503.91" stroke="rgba(82, 121, 201, 1)" stroke-width="1.5"></path><path d="M1398.56 503.91L1604.5 511.57" stroke="rgba(82, 121, 201, 1)" stroke-width="1.5"></path><path d="M1398.56 503.91L1308.99 692.3" stroke="rgba(82, 121, 201, 1)" stroke-width="1.5"></path><path d="M1398.56 503.91L1543.07 655.16" stroke="rgba(82, 121, 201, 1)" stroke-width="1.5"></path><path d="M1602.46 -103.09L1602.46 -103.09" stroke="rgba(82, 121, 201, 1)" stroke-width="1.5"></path><path d="M1602.46 -103.09L1451.93 42.89" stroke="rgba(82, 121, 201, 1)" stroke-width="1.5"></path><path d="M1602.46 -103.09L1554.34 203.25" stroke="rgba(82, 121, 201, 1)" stroke-width="1.5"></path><path d="M1602.46 -103.09L1288.11 -66.54" stroke="rgba(82, 121, 201, 1)" stroke-width="1.5"></path><path d="M1602.46 -103.09L1307.31 93.83" stroke="rgba(82, 121, 201, 1)" stroke-width="1.5"></path><path d="M1602.46 -103.09L1389.79 221.6" stroke="rgba(82, 121, 201, 1)" stroke-width="1.5"></path><path d="M1554.34 203.25L1554.34 203.25" stroke="rgba(82, 121, 201, 1)" stroke-width="1.5"></path><path d="M1554.34 203.25L1550.72 342.52" stroke="rgba(82, 121, 201, 1)" stroke-width="1.5"></path><path d="M1554.34 203.25L1389.79 221.6" stroke="rgba(82, 121, 201, 1)" stroke-width="1.5"></path><path d="M1554.34 203.25L1430.31 373.29" stroke="rgba(82, 121, 201, 1)" stroke-width="1.5"></path><path d="M1554.34 203.25L1307.31 93.83" stroke="rgba(82, 121, 201, 1)" stroke-width="1.5"></path><path d="M1554.34 203.25L1279.38 213.39" stroke="rgba(82, 121, 201, 1)" stroke-width="1.5"></path><path d="M1550.72 342.52L1550.72 342.52" stroke="rgba(82, 121, 201, 1)" stroke-width="1.5"></path><path d="M1550.72 342.52L1604.5 511.57" stroke="rgba(82, 121, 201, 1)" stroke-width="1.5"></path><path d="M1550.72 342.52L1389.79 221.6" stroke="rgba(82, 121, 201, 1)" stroke-width="1.5"></path><path d="M1550.72 342.52L1398.56 503.91" stroke="rgba(82, 121, 201, 1)" stroke-width="1.5"></path><path d="M1550.72 342.52L1303.67 387.56" stroke="rgba(82, 121, 201, 1)" stroke-width="1.5"></path><path d="M1604.5 511.57L1604.5 511.57" stroke="rgba(82, 121, 201, 1)" stroke-width="1.5"></path><path d="M1604.5 511.57L1543.07 655.16" stroke="rgba(82, 121, 201, 1)" stroke-width="1.5"></path><path d="M1604.5 511.57L1430.31 373.29" stroke="rgba(82, 121, 201, 1)" stroke-width="1.5"></path><path d="M1604.5 511.57L1554.34 203.25" stroke="rgba(82, 121, 201, 1)" stroke-width="1.5"></path><path d="M1604.5 511.57L1303.67 387.56" stroke="rgba(82, 121, 201, 1)" stroke-width="1.5"></path><path d="M1543.07 655.16L1543.07 655.16" stroke="rgba(82, 121, 201, 1)" stroke-width="1.5"></path><path d="M1543.07 655.16L1308.99 692.3" stroke="rgba(82, 121, 201, 1)" stroke-width="1.5"></path><path d="M1543.07 655.16L1270.04 543.16" stroke="rgba(82, 121, 201, 1)" stroke-width="1.5"></path><path d="M1543.07 655.16L1430.31 373.29" stroke="rgba(82, 121, 201, 1)" stroke-width="1.5"></path><circle r="5" cx="-37.9" cy="371.91" fill="rgba(82, 121, 201, 1)"></circle><circle r="5" cx="-46.65" cy="536.66" fill="rgba(82, 121, 201, 1)"></circle><circle r="5" cx="-49.17" cy="665.35" fill="rgba(82, 121, 201, 1)"></circle><circle r="5" cx="101.87" cy="358.57" fill="rgba(82, 121, 201, 1)"></circle><circle r="5" cx="63.52" cy="546.87" fill="rgba(82, 121, 201, 1)"></circle><circle r="5" cx="68.3" cy="703.89" fill="rgba(82, 121, 201, 1)"></circle><circle r="5" cx="205.72" cy="357.68" fill="rgba(82, 121, 201, 1)"></circle><circle r="5" cx="260.57" cy="489.83" fill="rgba(82, 121, 201, 1)"></circle><circle r="5" cx="230.66" cy="674.55" fill="rgba(82, 121, 201, 1)"></circle><circle r="5" cx="407.56" cy="400.04" fill="rgba(82, 121, 201, 1)"></circle><circle r="5" cx="377.39" cy="546.34" fill="rgba(82, 121, 201, 1)"></circle><circle r="5" cx="364.17" cy="674.44" fill="rgba(82, 121, 201, 1)"></circle><circle r="5" cx="490.09" cy="358.02" fill="rgba(82, 121, 201, 1)"></circle><circle r="5" cx="492.4" cy="535.14" fill="rgba(82, 121, 201, 1)"></circle><circle r="5" cx="509.1" cy="659.61" fill="rgba(82, 121, 201, 1)"></circle><circle r="5" cx="709.57" cy="255.28" fill="rgba(82, 121, 201, 1)"></circle><circle r="5" cx="692.38" cy="365.53" fill="rgba(82, 121, 201, 1)"></circle><circle r="5" cx="706.06" cy="519.76" fill="rgba(82, 121, 201, 1)"></circle><circle r="5" cx="676.96" cy="698.03" fill="rgba(82, 121, 201, 1)"></circle><circle r="5" cx="849.84" cy="97.92" fill="rgba(82, 121, 201, 1)"></circle><circle r="5" cx="790.17" cy="233.15" fill="rgba(82, 121, 201, 1)"></circle><circle r="5" cx="809.39" cy="391.29" fill="rgba(82, 121, 201, 1)"></circle><circle r="5" cx="805.46" cy="509.42" fill="rgba(82, 121, 201, 1)"></circle><circle r="5" cx="858.58" cy="687.05" fill="rgba(82, 121, 201, 1)"></circle><circle r="5" cx="1009" cy="-65.61" fill="rgba(82, 121, 201, 1)"></circle><circle r="5" cx="973.32" cy="78.74" fill="rgba(82, 121, 201, 1)"></circle><circle r="5" cx="969.1" cy="240.45" fill="rgba(82, 121, 201, 1)"></circle><circle r="5" cx="997.21" cy="406.75" fill="rgba(82, 121, 201, 1)"></circle><circle r="5" cx="1008.16" cy="557.44" fill="rgba(82, 121, 201, 1)"></circle><circle r="5" cx="969.21" cy="688.7" fill="rgba(82, 121, 201, 1)"></circle><circle r="5" cx="1149.12" cy="59.35" fill="rgba(82, 121, 201, 1)"></circle><circle r="5" cx="1112.44" cy="257.96" fill="rgba(82, 121, 201, 1)"></circle><circle r="5" cx="1120.58" cy="367.87" fill="rgba(82, 121, 201, 1)"></circle><circle r="5" cx="1161.22" cy="503.48" fill="rgba(82, 121, 201, 1)"></circle><circle r="5" cx="1155.07" cy="668.41" fill="rgba(82, 121, 201, 1)"></circle><circle r="5" cx="1288.11" cy="-66.54" fill="rgba(82, 121, 201, 1)"></circle><circle r="5" cx="1307.31" cy="93.83" fill="rgba(82, 121, 201, 1)"></circle><circle r="5" cx="1279.38" cy="213.39" fill="rgba(82, 121, 201, 1)"></circle><circle r="5" cx="1303.67" cy="387.56" fill="rgba(82, 121, 201, 1)"></circle><circle r="5" cx="1270.04" cy="543.16" fill="rgba(82, 121, 201, 1)"></circle><circle r="5" cx="1308.99" cy="692.3" fill="rgba(82, 121, 201, 1)"></circle><circle r="5" cx="1449.89" cy="-75.48" fill="rgba(82, 121, 201, 1)"></circle><circle r="5" cx="1451.93" cy="42.89" fill="rgba(82, 121, 201, 1)"></circle><circle r="5" cx="1389.79" cy="221.6" fill="rgba(82, 121, 201, 1)"></circle><circle r="5" cx="1430.31" cy="373.29" fill="rgba(82, 121, 201, 1)"></circle><circle r="5" cx="1398.56" cy="503.91" fill="rgba(82, 121, 201, 1)"></circle><circle r="5" cx="1602.46" cy="-103.09" fill="rgba(82, 121, 201, 1)"></circle><circle r="5" cx="1554.34" cy="203.25" fill="rgba(82, 121, 201, 1)"></circle><circle r="5" cx="1550.72" cy="342.52" fill="rgba(82, 121, 201, 1)"></circle><circle r="5" cx="1604.5" cy="511.57" fill="rgba(82, 121, 201, 1)"></circle><circle r="5" cx="1543.07" cy="655.16" fill="rgba(82, 121, 201, 1)"></circle><path d="M61.45 640.55L61.45 640.55" stroke="hsl(228.39999999999998, 82.2%, 40%)" stroke-width="1.5"></path><path d="M61.45 640.55L-40.48 667.36" stroke="hsl(228.39999999999998, 82.2%, 40%)" stroke-width="1.5"></path><path d="M61.45 640.55L-71.35 534.7" stroke="hsl(228.39999999999998, 82.2%, 40%)" stroke-width="1.5"></path><path d="M61.45 640.55L208.47 543.28" stroke="hsl(228.39999999999998, 82.2%, 40%)" stroke-width="1.5"></path><path d="M61.45 640.55L256.78 711.59" stroke="hsl(228.39999999999998, 82.2%, 40%)" stroke-width="1.5"></path><path d="M61.45 640.55L387.43 664.07" stroke="hsl(228.39999999999998, 82.2%, 40%)" stroke-width="1.5"></path><path d="M61.45 640.55L395.49 525.49" stroke="hsl(228.39999999999998, 82.2%, 40%)" stroke-width="1.5"></path><path d="M256.78 711.59L256.78 711.59" stroke="hsl(228.39999999999998, 82.2%, 40%)" stroke-width="1.5"></path><path d="M256.78 711.59L387.43 664.07" stroke="hsl(228.39999999999998, 82.2%, 40%)" stroke-width="1.5"></path><path d="M256.78 711.59L208.47 543.28" stroke="hsl(228.39999999999998, 82.2%, 40%)" stroke-width="1.5"></path><path d="M256.78 711.59L395.49 525.49" stroke="hsl(228.39999999999998, 82.2%, 40%)" stroke-width="1.5"></path><path d="M387.43 664.07L387.43 664.07" stroke="hsl(228.39999999999998, 82.2%, 40%)" stroke-width="1.5"></path><path d="M387.43 664.07L395.49 525.49" stroke="hsl(228.39999999999998, 82.2%, 40%)" stroke-width="1.5"></path><path d="M387.43 664.07L553.79 704.26" stroke="hsl(228.39999999999998, 82.2%, 40%)" stroke-width="1.5"></path><path d="M1138.6 247.75L1138.6 247.75" stroke="hsl(228.39999999999998, 82.2%, 40%)" stroke-width="1.5"></path><path d="M1138.6 247.75L1273.23 225.11" stroke="hsl(228.39999999999998, 82.2%, 40%)" stroke-width="1.5"></path><path d="M1138.6 247.75L1094.62 384.26" stroke="hsl(228.39999999999998, 82.2%, 40%)" stroke-width="1.5"></path><path d="M1138.6 247.75L961.97 349.47" stroke="hsl(228.39999999999998, 82.2%, 40%)" stroke-width="1.5"></path><path d="M1138.6 247.75L1293.5 387.94" stroke="hsl(228.39999999999998, 82.2%, 40%)" stroke-width="1.5"></path><path d="M1292.13 79.48L1292.13 79.48" stroke="hsl(228.39999999999998, 82.2%, 40%)" stroke-width="1.5"></path><path d="M1292.13 79.48L1422.65 79.46" stroke="hsl(228.39999999999998, 82.2%, 40%)" stroke-width="1.5"></path><path d="M1292.13 79.48L1273.23 225.11" stroke="hsl(228.39999999999998, 82.2%, 40%)" stroke-width="1.5"></path><path d="M1292.13 79.48L1299.7 -68.27" stroke="hsl(228.39999999999998, 82.2%, 40%)" stroke-width="1.5"></path><path d="M1292.13 79.48L1399.42 208.27" stroke="hsl(228.39999999999998, 82.2%, 40%)" stroke-width="1.5"></path><path d="M1293.5 387.94L1293.5 387.94" stroke="hsl(228.39999999999998, 82.2%, 40%)" stroke-width="1.5"></path><path d="M1293.5 387.94L1426 341.35" stroke="hsl(228.39999999999998, 82.2%, 40%)" stroke-width="1.5"></path><path d="M1293.5 387.94L1244.7 527.83" stroke="hsl(228.39999999999998, 82.2%, 40%)" stroke-width="1.5"></path><path d="M1293.5 387.94L1273.23 225.11" stroke="hsl(228.39999999999998, 82.2%, 40%)" stroke-width="1.5"></path><path d="M1293.5 387.94L1094.62 384.26" stroke="hsl(228.39999999999998, 82.2%, 40%)" stroke-width="1.5"></path><path d="M1611.99 196.44L1611.99 196.44" stroke="hsl(228.39999999999998, 82.2%, 40%)" stroke-width="1.5"></path><path d="M1611.99 196.44L1579.36 78.97" stroke="hsl(228.39999999999998, 82.2%, 40%)" stroke-width="1.5"></path><path d="M1611.99 196.44L1590.97 344.81" stroke="hsl(228.39999999999998, 82.2%, 40%)" stroke-width="1.5"></path><path d="M1611.99 196.44L1399.42 208.27" stroke="hsl(228.39999999999998, 82.2%, 40%)" stroke-width="1.5"></path><path d="M1611.99 196.44L1422.65 79.46" stroke="hsl(228.39999999999998, 82.2%, 40%)" stroke-width="1.5"></path><path d="M-71.35 534.7L-71.35 534.7" stroke="hsl(228.39999999999998, 82.2%, 40%)" stroke-width="1.5"></path><path d="M-71.35 534.7L-40.48 667.36" stroke="hsl(228.39999999999998, 82.2%, 40%)" stroke-width="1.5"></path><path d="M-40.48 667.36L-40.48 667.36" stroke="hsl(228.39999999999998, 82.2%, 40%)" stroke-width="1.5"></path><path d="M-40.48 667.36L208.47 543.28" stroke="hsl(228.39999999999998, 82.2%, 40%)" stroke-width="1.5"></path><path d="M-40.48 667.36L256.78 711.59" stroke="hsl(228.39999999999998, 82.2%, 40%)" stroke-width="1.5"></path><path d="M-40.48 667.36L387.43 664.07" stroke="hsl(228.39999999999998, 82.2%, 40%)" stroke-width="1.5"></path><path d="M208.47 543.28L208.47 543.28" stroke="hsl(228.39999999999998, 82.2%, 40%)" stroke-width="1.5"></path><path d="M208.47 543.28L395.49 525.49" stroke="hsl(228.39999999999998, 82.2%, 40%)" stroke-width="1.5"></path><path d="M208.47 543.28L387.43 664.07" stroke="hsl(228.39999999999998, 82.2%, 40%)" stroke-width="1.5"></path><path d="M395.49 525.49L395.49 525.49" stroke="hsl(228.39999999999998, 82.2%, 40%)" stroke-width="1.5"></path><path d="M395.49 525.49L495.55 511.72" stroke="hsl(228.39999999999998, 82.2%, 40%)" stroke-width="1.5"></path><path d="M495.55 511.72L495.55 511.72" stroke="hsl(228.39999999999998, 82.2%, 40%)" stroke-width="1.5"></path><path d="M495.55 511.72L387.43 664.07" stroke="hsl(228.39999999999998, 82.2%, 40%)" stroke-width="1.5"></path><path d="M495.55 511.72L553.79 704.26" stroke="hsl(228.39999999999998, 82.2%, 40%)" stroke-width="1.5"></path><path d="M553.79 704.26L553.79 704.26" stroke="hsl(228.39999999999998, 82.2%, 40%)" stroke-width="1.5"></path><path d="M553.79 704.26L652.16 661.25" stroke="hsl(228.39999999999998, 82.2%, 40%)" stroke-width="1.5"></path><path d="M553.79 704.26L395.49 525.49" stroke="hsl(228.39999999999998, 82.2%, 40%)" stroke-width="1.5"></path><path d="M553.79 704.26L256.78 711.59" stroke="hsl(228.39999999999998, 82.2%, 40%)" stroke-width="1.5"></path><path d="M553.79 704.26L846.99 649.69" stroke="hsl(228.39999999999998, 82.2%, 40%)" stroke-width="1.5"></path><path d="M652.16 661.25L652.16 661.25" stroke="hsl(228.39999999999998, 82.2%, 40%)" stroke-width="1.5"></path><path d="M652.16 661.25L846.99 649.69" stroke="hsl(228.39999999999998, 82.2%, 40%)" stroke-width="1.5"></path><path d="M652.16 661.25L495.55 511.72" stroke="hsl(228.39999999999998, 82.2%, 40%)" stroke-width="1.5"></path><path d="M652.16 661.25L848.66 540.1" stroke="hsl(228.39999999999998, 82.2%, 40%)" stroke-width="1.5"></path><path d="M652.16 661.25L387.43 664.07" stroke="hsl(228.39999999999998, 82.2%, 40%)" stroke-width="1.5"></path><path d="M652.16 661.25L395.49 525.49" stroke="hsl(228.39999999999998, 82.2%, 40%)" stroke-width="1.5"></path><path d="M848.66 540.1L848.66 540.1" stroke="hsl(228.39999999999998, 82.2%, 40%)" stroke-width="1.5"></path><path d="M848.66 540.1L940.37 544.21" stroke="hsl(228.39999999999998, 82.2%, 40%)" stroke-width="1.5"></path><path d="M848.66 540.1L846.99 649.69" stroke="hsl(228.39999999999998, 82.2%, 40%)" stroke-width="1.5"></path><path d="M848.66 540.1L961.97 349.47" stroke="hsl(228.39999999999998, 82.2%, 40%)" stroke-width="1.5"></path><path d="M846.99 649.69L846.99 649.69" stroke="hsl(228.39999999999998, 82.2%, 40%)" stroke-width="1.5"></path><path d="M846.99 649.69L940.37 544.21" stroke="hsl(228.39999999999998, 82.2%, 40%)" stroke-width="1.5"></path><path d="M846.99 649.69L1141.97 693.75" stroke="hsl(228.39999999999998, 82.2%, 40%)" stroke-width="1.5"></path><path d="M846.99 649.69L1137.2 526.25" stroke="hsl(228.39999999999998, 82.2%, 40%)" stroke-width="1.5"></path><path d="M961.97 349.47L961.97 349.47" stroke="hsl(228.39999999999998, 82.2%, 40%)" stroke-width="1.5"></path><path d="M961.97 349.47L1094.62 384.26" stroke="hsl(228.39999999999998, 82.2%, 40%)" stroke-width="1.5"></path><path d="M961.97 349.47L940.37 544.21" stroke="hsl(228.39999999999998, 82.2%, 40%)" stroke-width="1.5"></path><path d="M940.37 544.21L940.37 544.21" stroke="hsl(228.39999999999998, 82.2%, 40%)" stroke-width="1.5"></path><path d="M940.37 544.21L1137.2 526.25" stroke="hsl(228.39999999999998, 82.2%, 40%)" stroke-width="1.5"></path><path d="M940.37 544.21L1094.62 384.26" stroke="hsl(228.39999999999998, 82.2%, 40%)" stroke-width="1.5"></path><path d="M1094.62 384.26L1094.62 384.26" stroke="hsl(228.39999999999998, 82.2%, 40%)" stroke-width="1.5"></path><path d="M1094.62 384.26L1137.2 526.25" stroke="hsl(228.39999999999998, 82.2%, 40%)" stroke-width="1.5"></path><path d="M1094.62 384.26L1244.7 527.83" stroke="hsl(228.39999999999998, 82.2%, 40%)" stroke-width="1.5"></path><path d="M1137.2 526.25L1137.2 526.25" stroke="hsl(228.39999999999998, 82.2%, 40%)" stroke-width="1.5"></path><path d="M1137.2 526.25L1244.7 527.83" stroke="hsl(228.39999999999998, 82.2%, 40%)" stroke-width="1.5"></path><path d="M1137.2 526.25L1141.97 693.75" stroke="hsl(228.39999999999998, 82.2%, 40%)" stroke-width="1.5"></path><path d="M1137.2 526.25L1293.5 387.94" stroke="hsl(228.39999999999998, 82.2%, 40%)" stroke-width="1.5"></path><path d="M1137.2 526.25L1256.48 708.19" stroke="hsl(228.39999999999998, 82.2%, 40%)" stroke-width="1.5"></path><path d="M1141.97 693.75L1141.97 693.75" stroke="hsl(228.39999999999998, 82.2%, 40%)" stroke-width="1.5"></path><path d="M1141.97 693.75L1256.48 708.19" stroke="hsl(228.39999999999998, 82.2%, 40%)" stroke-width="1.5"></path><path d="M1141.97 693.75L1244.7 527.83" stroke="hsl(228.39999999999998, 82.2%, 40%)" stroke-width="1.5"></path><path d="M1141.97 693.75L940.37 544.21" stroke="hsl(228.39999999999998, 82.2%, 40%)" stroke-width="1.5"></path><path d="M1141.97 693.75L1094.62 384.26" stroke="hsl(228.39999999999998, 82.2%, 40%)" stroke-width="1.5"></path><path d="M1299.7 -68.27L1299.7 -68.27" stroke="hsl(228.39999999999998, 82.2%, 40%)" stroke-width="1.5"></path><path d="M1299.7 -68.27L1450.44 -70.36" stroke="hsl(228.39999999999998, 82.2%, 40%)" stroke-width="1.5"></path><path d="M1273.23 225.11L1273.23 225.11" stroke="hsl(228.39999999999998, 82.2%, 40%)" stroke-width="1.5"></path><path d="M1273.23 225.11L1399.42 208.27" stroke="hsl(228.39999999999998, 82.2%, 40%)" stroke-width="1.5"></path><path d="M1244.7 527.83L1244.7 527.83" stroke="hsl(228.39999999999998, 82.2%, 40%)" stroke-width="1.5"></path><path d="M1244.7 527.83L1256.48 708.19" stroke="hsl(228.39999999999998, 82.2%, 40%)" stroke-width="1.5"></path><path d="M1256.48 708.19L1256.48 708.19" stroke="hsl(228.39999999999998, 82.2%, 40%)" stroke-width="1.5"></path><path d="M1256.48 708.19L1451.48 639.63" stroke="hsl(228.39999999999998, 82.2%, 40%)" stroke-width="1.5"></path><path d="M1256.48 708.19L1452.97 521.46" stroke="hsl(228.39999999999998, 82.2%, 40%)" stroke-width="1.5"></path><path d="M1450.44 -70.36L1450.44 -70.36" stroke="hsl(228.39999999999998, 82.2%, 40%)" stroke-width="1.5"></path><path d="M1450.44 -70.36L1581.57 -56.38" stroke="hsl(228.39999999999998, 82.2%, 40%)" stroke-width="1.5"></path><path d="M1450.44 -70.36L1422.65 79.46" stroke="hsl(228.39999999999998, 82.2%, 40%)" stroke-width="1.5"></path><path d="M1450.44 -70.36L1579.36 78.97" stroke="hsl(228.39999999999998, 82.2%, 40%)" stroke-width="1.5"></path><path d="M1422.65 79.46L1422.65 79.46" stroke="hsl(228.39999999999998, 82.2%, 40%)" stroke-width="1.5"></path><path d="M1422.65 79.46L1399.42 208.27" stroke="hsl(228.39999999999998, 82.2%, 40%)" stroke-width="1.5"></path><path d="M1422.65 79.46L1579.36 78.97" stroke="hsl(228.39999999999998, 82.2%, 40%)" stroke-width="1.5"></path><path d="M1399.42 208.27L1399.42 208.27" stroke="hsl(228.39999999999998, 82.2%, 40%)" stroke-width="1.5"></path><path d="M1426 341.35L1426 341.35" stroke="hsl(228.39999999999998, 82.2%, 40%)" stroke-width="1.5"></path><path d="M1426 341.35L1399.42 208.27" stroke="hsl(228.39999999999998, 82.2%, 40%)" stroke-width="1.5"></path><path d="M1426 341.35L1590.97 344.81" stroke="hsl(228.39999999999998, 82.2%, 40%)" stroke-width="1.5"></path><path d="M1452.97 521.46L1452.97 521.46" stroke="hsl(228.39999999999998, 82.2%, 40%)" stroke-width="1.5"></path><path d="M1452.97 521.46L1451.48 639.63" stroke="hsl(228.39999999999998, 82.2%, 40%)" stroke-width="1.5"></path><path d="M1452.97 521.46L1585.38 540.52" stroke="hsl(228.39999999999998, 82.2%, 40%)" stroke-width="1.5"></path><path d="M1452.97 521.46L1426 341.35" stroke="hsl(228.39999999999998, 82.2%, 40%)" stroke-width="1.5"></path><path d="M1452.97 521.46L1293.5 387.94" stroke="hsl(228.39999999999998, 82.2%, 40%)" stroke-width="1.5"></path><path d="M1451.48 639.63L1451.48 639.63" stroke="hsl(228.39999999999998, 82.2%, 40%)" stroke-width="1.5"></path><path d="M1451.48 639.63L1604.4 697.3" stroke="hsl(228.39999999999998, 82.2%, 40%)" stroke-width="1.5"></path><path d="M1451.48 639.63L1585.38 540.52" stroke="hsl(228.39999999999998, 82.2%, 40%)" stroke-width="1.5"></path><path d="M1451.48 639.63L1244.7 527.83" stroke="hsl(228.39999999999998, 82.2%, 40%)" stroke-width="1.5"></path><path d="M1451.48 639.63L1293.5 387.94" stroke="hsl(228.39999999999998, 82.2%, 40%)" stroke-width="1.5"></path><path d="M1581.57 -56.38L1581.57 -56.38" stroke="hsl(228.39999999999998, 82.2%, 40%)" stroke-width="1.5"></path><path d="M1581.57 -56.38L1579.36 78.97" stroke="hsl(228.39999999999998, 82.2%, 40%)" stroke-width="1.5"></path><path d="M1579.36 78.97L1579.36 78.97" stroke="hsl(228.39999999999998, 82.2%, 40%)" stroke-width="1.5"></path><path d="M1590.97 344.81L1590.97 344.81" stroke="hsl(228.39999999999998, 82.2%, 40%)" stroke-width="1.5"></path><path d="M1585.38 540.52L1585.38 540.52" stroke="hsl(228.39999999999998, 82.2%, 40%)" stroke-width="1.5"></path><path d="M1585.38 540.52L1604.4 697.3" stroke="hsl(228.39999999999998, 82.2%, 40%)" stroke-width="1.5"></path><path d="M1604.4 697.3L1604.4 697.3" stroke="hsl(228.39999999999998, 82.2%, 40%)" stroke-width="1.5"></path><circle r="25" cx="61.45" cy="640.55" fill="url(&quot;#SvgjsRadialGradient1035&quot;)"></circle><circle r="25" cx="256.78" cy="711.59" fill="url(&quot;#SvgjsRadialGradient1035&quot;)"></circle><circle r="25" cx="387.43" cy="664.07" fill="url(&quot;#SvgjsRadialGradient1035&quot;)"></circle><circle r="25" cx="1138.6" cy="247.75" fill="url(&quot;#SvgjsRadialGradient1035&quot;)"></circle><circle r="25" cx="1292.13" cy="79.48" fill="url(&quot;#SvgjsRadialGradient1035&quot;)"></circle><circle r="25" cx="1293.5" cy="387.94" fill="url(&quot;#SvgjsRadialGradient1035&quot;)"></circle><circle r="25" cx="1611.99" cy="196.44" fill="url(&quot;#SvgjsRadialGradient1035&quot;)"></circle><circle r="5" cx="-71.35" cy="534.7" fill="#8793c7"></circle><circle r="5" cx="-40.48" cy="667.36" fill="#8793c7"></circle><circle r="5" cx="208.47" cy="543.28" fill="#8793c7"></circle><circle r="5" cx="395.49" cy="525.49" fill="#8793c7"></circle><circle r="5" cx="495.55" cy="511.72" fill="#8793c7"></circle><circle r="5" cx="553.79" cy="704.26" fill="#8793c7"></circle><circle r="5" cx="652.16" cy="661.25" fill="#8793c7"></circle><circle r="5" cx="848.66" cy="540.1" fill="#8793c7"></circle><circle r="5" cx="846.99" cy="649.69" fill="#8793c7"></circle><circle r="5" cx="961.97" cy="349.47" fill="#8793c7"></circle><circle r="5" cx="940.37" cy="544.21" fill="#8793c7"></circle><circle r="5" cx="1094.62" cy="384.26" fill="#8793c7"></circle><circle r="5" cx="1137.2" cy="526.25" fill="#8793c7"></circle><circle r="5" cx="1141.97" cy="693.75" fill="#8793c7"></circle><circle r="5" cx="1299.7" cy="-68.27" fill="#8793c7"></circle><circle r="5" cx="1273.23" cy="225.11" fill="#8793c7"></circle><circle r="5" cx="1244.7" cy="527.83" fill="#8793c7"></circle><circle r="5" cx="1256.48" cy="708.19" fill="#8793c7"></circle><circle r="5" cx="1450.44" cy="-70.36" fill="#8793c7"></circle><circle r="5" cx="1422.65" cy="79.46" fill="#8793c7"></circle><circle r="5" cx="1399.42" cy="208.27" fill="#8793c7"></circle><circle r="5" cx="1426" cy="341.35" fill="#8793c7"></circle><circle r="5" cx="1452.97" cy="521.46" fill="#8793c7"></circle><circle r="5" cx="1451.48" cy="639.63" fill="#8793c7"></circle><circle r="5" cx="1581.57" cy="-56.38" fill="#8793c7"></circle><circle r="5" cx="1579.36" cy="78.97" fill="#8793c7"></circle><circle r="5" cx="1590.97" cy="344.81" fill="#8793c7"></circle><circle r="5" cx="1585.38" cy="540.52" fill="#8793c7"></circle><circle r="5" cx="1604.4" cy="697.3" fill="#8793c7"></circle></g><defs><mask id="SvgjsMask1034"><rect width="1440" height="560" fill="#ffffff"></rect></mask><radialGradient id="SvgjsRadialGradient1035"><stop stop-color="#ffffff" offset="0.1"></stop><stop stop-color="rgba(14, 39, 143, 1)" offset="0.2"></stop><stop stop-color="rgba(14, 39, 143, 0)" offset="1"></stop></radialGradient></defs></svg>